<svg xmlns="http://www.w3.org/2000/svg" viewBox="0 0 410 404">
  <defs>
    <linearGradient id="a" x1="19.128%" x2="50%" y1="14.249%" y2="50%">
      <stop offset="0%" stop-color="#41D1FF"/>
      <stop offset="100%" stop-color="#BD34FE"/>
    </linearGradient>
  </defs>
  <path fill="url(#a)" d="M399.641 59.597l-183.998 329.02c-3.799 6.793-13.559 6.833-17.415.073L10.582 59.556C6.38 52.19 12.68 43.266 21.028 44.76l184.195 32.923c.96.172 1.92.172 2.88 0L392.308 44.75c8.355-1.493 14.666 7.47 10.333 14.847z"/>
  <path fill="#BD34FE" d="M292.965 1.574L156.801 28.255a4 4 0 00-3.182 3.887l-7.209 138.208a4 4 0 003.29 4.188l100.375 18.734a4 4 0 004.632-3.388l19.265-186.211a4 4 0 00-4.007-4.099z"/>
</svg>
